  0
SECTION
  2
HEADER
  9
$EXTMIN
 10
-0.188000
 20
-0.428000
  9
$EXTMAX
 10
0.355000
 20
0.480000
  9
$LIMMIN
 10
-0.188000
 20
-0.428000
  9
$LIMMAX
 10
0.355000
 20
0.480000
  9
$FILLMODE
 70
  1
  0
ENDSEC
  0
SECTION
  2
TABLES
  0
TABLE
  2
LTYPE
 70
  1
  0
LTYPE
  2
CONTINUOUS
 70
 64
  3
Solid line
 72
 65
 73
  0
 40
0.0
  0
ENDTAB
  0
TABLE
  2
LAYER
 70
 1
  0
LAYER
  2
0
 70
  0
 62
7
  6
CONTINUOUS
  0
LAYER
  2
gg1
 70
  0
 62
1
  6
CONTINUOUS
  0
ENDTAB
  0
TABLE
  2
STYLE
 70
  1
  0
STYLE
  2
STANDARD
 70
  0
 40
0.0
 41
1.0
 50
0.0
 71
  0
 42
0.2
  3
txt
  4

  0
ENDTAB
  0
ENDSEC
  0
SECTION
  2
BLOCKS
  0
BLOCK
  8
0
  2
D10
 70
64
 10
0.0
 20
0.0
  3
D10
  0
CIRCLE
  8
0
 10
0.000000
 20
0.000000
 40
0.005000
 0
ENDBLK
  8
0
  0
BLOCK
  8
0
  2
D11
 70
64
 10
0.0
 20
0.0
  3
D11
  0
CIRCLE
  8
0
 10
0.000000
 20
0.000000
 40
0.002500
 0
ENDBLK
  8
0
  0
BLOCK
  8
0
  2
D12
 70
64
 10
0.0
 20
0.0
  3
D12
  0
CIRCLE
  8
0
 10
0.000000
 20
0.000000
 40
0.003000
 0
ENDBLK
  8
0
  0
ENDSEC
  0
SECTION
  2
ENTITIES
  0
POLYLINE
  8
gg1
 62
1
 40
0.000000
 41
0.000000
 66
  1
  0
VERTEX
  8
gg1
 10
0.350000
 20
-0.335000
  0
VERTEX
  8
gg1
 10
0.350000
 20
-0.010000
  0
SEQEND
  8
gg1
  0
POLYLINE
  8
gg1
 62
1
 40
0.000000
 41
0.000000
 66
  1
  0
VERTEX
  8
gg1
 10
0.000000
 20
-0.335000
  0
VERTEX
  8
gg1
 10
0.000000
 20
-0.010000
  0
SEQEND
  8
gg1
  0
POLYLINE
  8
gg1
 62
1
 40
0.000000
 41
0.000000
 66
  1
  0
VERTEX
  8
gg1
 10
0.175000
 20
-0.325000
  0
VERTEX
  8
gg1
 10
0.350000
 20
-0.325000
  0
SEQEND
  8
gg1
  0
POLYLINE
  8
gg1
 62
1
 40
0.000000
 41
0.000000
 66
  1
  0
VERTEX
  8
gg1
 10
0.000000
 20
-0.325000
  0
VERTEX
  8
gg1
 10
0.175000
 20
-0.325000
  0
SEQEND
  8
gg1
  0
POLYLINE
  8
gg1
 62
1
 40
0.000000
 41
0.000000
 66
  1
  0
VERTEX
  8
gg1
 10
0.290000
 20
-0.305000
  0
VERTEX
  8
gg1
 10
0.350000
 20
-0.325000
  0
SEQEND
  8
gg1
  0
POLYLINE
  8
gg1
 62
1
 40
0.000000
 41
0.000000
 66
  1
  0
VERTEX
  8
gg1
 10
0.290000
 20
-0.345000
  0
VERTEX
  8
gg1
 10
0.350000
 20
-0.325000
  0
SEQEND
  8
gg1
  0
POLYLINE
  8
gg1
 62
1
 40
0.000000
 41
0.000000
 66
  1
  0
VERTEX
  8
gg1
 10
0.000000
 20
-0.325000
  0
VERTEX
  8
gg1
 10
0.060000
 20
-0.345000
  0
SEQEND
  8
gg1
  0
POLYLINE
  8
gg1
 62
1
 40
0.000000
 41
0.000000
 66
  1
  0
VERTEX
  8
gg1
 10
0.000000
 20
-0.325000
  0
VERTEX
  8
gg1
 10
0.060000
 20
-0.305000
  0
SEQEND
  8
gg1
  0
POLYLINE
  8
gg1
 62
1
 40
0.000000
 41
0.000000
 66
  1
  0
VERTEX
  8
gg1
 10
-0.085000
 20
0.475000
  0
VERTEX
  8
gg1
 10
-0.010000
 20
0.475000
  0
SEQEND
  8
gg1
  0
POLYLINE
  8
gg1
 62
1
 40
0.000000
 41
0.000000
 66
  1
  0
VERTEX
  8
gg1
 10
-0.085000
 20
0.000000
  0
VERTEX
  8
gg1
 10
-0.010000
 20
0.000000
  0
SEQEND
  8
gg1
  0
POLYLINE
  8
gg1
 62
1
 40
0.000000
 41
0.000000
 66
  1
  0
VERTEX
  8
gg1
 10
-0.075000
 20
0.237500
  0
VERTEX
  8
gg1
 10
-0.075000
 20
0.475000
  0
SEQEND
  8
gg1
  0
POLYLINE
  8
gg1
 62
1
 40
0.000000
 41
0.000000
 66
  1
  0
VERTEX
  8
gg1
 10
-0.075000
 20
0.000000
  0
VERTEX
  8
gg1
 10
-0.075000
 20
0.237500
  0
SEQEND
  8
gg1
  0
POLYLINE
  8
gg1
 62
1
 40
0.000000
 41
0.000000
 66
  1
  0
VERTEX
  8
gg1
 10
-0.095000
 20
0.415000
  0
VERTEX
  8
gg1
 10
-0.075000
 20
0.475000
  0
VERTEX
  8
gg1
 10
-0.055000
 20
0.415000
  0
SEQEND
  8
gg1
  0
POLYLINE
  8
gg1
 62
1
 40
0.000000
 41
0.000000
 66
  1
  0
VERTEX
  8
gg1
 10
-0.075000
 20
0.000000
  0
VERTEX
  8
gg1
 10
-0.055000
 20
0.060000
  0
SEQEND
  8
gg1
  0
POLYLINE
  8
gg1
 62
1
 40
0.000000
 41
0.000000
 66
  1
  0
VERTEX
  8
gg1
 10
-0.095000
 20
0.060000
  0
VERTEX
  8
gg1
 10
-0.075000
 20
0.000000
  0
SEQEND
  8
gg1
  0
POLYLINE
  8
gg1
 62
1
 40
0.000000
 41
0.000000
 66
  1
  0
VERTEX
  8
gg1
 10
0.000000
 20
0.000000
  0
VERTEX
  8
gg1
 10
0.000000
 20
0.475000
  0
VERTEX
  8
gg1
 10
0.350000
 20
0.475000
  0
SEQEND
  8
gg1
  0
POLYLINE
  8
gg1
 62
1
 40
0.000000
 41
0.000000
 66
  1
  0
VERTEX
  8
gg1
 10
0.350000
 20
0.000000
  0
VERTEX
  8
gg1
 10
0.350000
 20
0.475000
  0
SEQEND
  8
gg1
  0
POLYLINE
  8
gg1
 62
1
 40
0.000000
 41
0.000000
 66
  1
  0
VERTEX
  8
gg1
 10
0.000000
 20
0.000000
  0
VERTEX
  8
gg1
 10
0.350000
 20
0.000000
  0
SEQEND
  8
gg1
  0
POLYLINE
  8
gg1
 62
1
 40
0.000000
 41
0.000000
 66
  1
  0
VERTEX
  8
gg1
 10
0.255000
 20
0.050000
  0
VERTEX
  8
gg1
 10
0.295000
 20
0.050000
  0
SEQEND
  8
gg1
  0
POLYLINE
  8
gg1
 62
1
 40
0.000000
 41
0.000000
 66
  1
  0
VERTEX
  8
gg1
 10
0.275000
 20
0.030000
  0
VERTEX
  8
gg1
 10
0.275000
 20
0.070000
  0
SEQEND
  8
gg1
  0
POLYLINE
  8
gg1
 62
1
 40
0.000000
 41
0.000000
 66
  1
  0
VERTEX
  8
gg1
 10
0.155000
 20
0.050000
  0
VERTEX
  8
gg1
 10
0.195000
 20
0.050000
  0
SEQEND
  8
gg1
  0
POLYLINE
  8
gg1
 62
1
 40
0.000000
 41
0.000000
 66
  1
  0
VERTEX
  8
gg1
 10
0.175000
 20
0.030000
  0
VERTEX
  8
gg1
 10
0.175000
 20
0.070000
  0
SEQEND
  8
gg1
  0
POLYLINE
  8
gg1
 62
1
 40
0.000000
 41
0.000000
 66
  1
  0
VERTEX
  8
gg1
 10
0.055000
 20
0.050000
  0
VERTEX
  8
gg1
 10
0.095000
 20
0.050000
  0
SEQEND
  8
gg1
  0
POLYLINE
  8
gg1
 62
1
 40
0.000000
 41
0.000000
 66
  1
  0
VERTEX
  8
gg1
 10
0.075000
 20
0.030000
  0
VERTEX
  8
gg1
 10
0.075000
 20
0.070000
  0
SEQEND
  8
gg1
  0
POLYLINE
  8
gg1
 62
1
 40
0.000000
 41
0.000000
 66
  1
  0
VERTEX
  8
gg1
 10
0.302500
 20
0.325000
  0
VERTEX
  8
gg1
 10
0.317500
 20
0.325000
  0
SEQEND
  8
gg1
  0
POLYLINE
  8
gg1
 62
1
 40
0.000000
 41
0.000000
 66
  1
  0
VERTEX
  8
gg1
 10
0.310000
 20
0.317500
  0
VERTEX
  8
gg1
 10
0.310000
 20
0.332500
  0
SEQEND
  8
gg1
  0
POLYLINE
  8
gg1
 62
1
 40
0.000000
 41
0.000000
 66
  1
  0
VERTEX
  8
gg1
 10
0.067500
 20
0.150000
  0
VERTEX
  8
gg1
 10
0.082500
 20
0.150000
  0
SEQEND
  8
gg1
  0
POLYLINE
  8
gg1
 62
1
 40
0.000000
 41
0.000000
 66
  1
  0
VERTEX
  8
gg1
 10
0.075000
 20
0.142500
  0
VERTEX
  8
gg1
 10
0.075000
 20
0.157500
  0
SEQEND
  8
gg1
  0
POLYLINE
  8
gg1
 62
1
 40
0.000000
 41
0.000000
 66
  1
  0
VERTEX
  8
gg1
 10
0.152500
 20
0.405000
  0
VERTEX
  8
gg1
 10
0.167500
 20
0.405000
  0
SEQEND
  8
gg1
  0
POLYLINE
  8
gg1
 62
1
 40
0.000000
 41
0.000000
 66
  1
  0
VERTEX
  8
gg1
 10
0.160000
 20
0.397500
  0
VERTEX
  8
gg1
 10
0.160000
 20
0.412500
  0
SEQEND
  8
gg1
  0
POLYLINE
  8
gg1
 62
1
 40
0.000000
 41
0.000000
 66
  1
  0
VERTEX
  8
gg1
 10
0.092500
 20
0.405000
  0
VERTEX
  8
gg1
 10
0.107500
 20
0.405000
  0
SEQEND
  8
gg1
  0
POLYLINE
  8
gg1
 62
1
 40
0.000000
 41
0.000000
 66
  1
  0
VERTEX
  8
gg1
 10
0.100000
 20
0.397500
  0
VERTEX
  8
gg1
 10
0.100000
 20
0.412500
  0
SEQEND
  8
gg1
  0
POLYLINE
  8
gg1
 62
1
 40
0.000000
 41
0.000000
 66
  1
  0
VERTEX
  8
gg1
 10
0.122500
 20
0.405000
  0
VERTEX
  8
gg1
 10
0.137500
 20
0.405000
  0
SEQEND
  8
gg1
  0
POLYLINE
  8
gg1
 62
1
 40
0.000000
 41
0.000000
 66
  1
  0
VERTEX
  8
gg1
 10
0.130000
 20
0.397500
  0
VERTEX
  8
gg1
 10
0.130000
 20
0.412500
  0
SEQEND
  8
gg1
  0
POLYLINE
  8
gg1
 62
1
 40
0.000000
 41
0.000000
 66
  1
  0
VERTEX
  8
gg1
 10
0.067500
 20
0.120000
  0
VERTEX
  8
gg1
 10
0.082500
 20
0.120000
  0
SEQEND
  8
gg1
  0
POLYLINE
  8
gg1
 62
1
 40
0.000000
 41
0.000000
 66
  1
  0
VERTEX
  8
gg1
 10
0.075000
 20
0.112500
  0
VERTEX
  8
gg1
 10
0.075000
 20
0.127500
  0
SEQEND
  8
gg1
  0
POLYLINE
  8
gg1
 62
1
 40
0.000000
 41
0.000000
 66
  1
  0
VERTEX
  8
gg1
 10
0.057500
 20
0.395000
  0
VERTEX
  8
gg1
 10
0.072500
 20
0.395000
  0
SEQEND
  8
gg1
  0
POLYLINE
  8
gg1
 62
1
 40
0.000000
 41
0.000000
 66
  1
  0
VERTEX
  8
gg1
 10
0.065000
 20
0.387500
  0
VERTEX
  8
gg1
 10
0.065000
 20
0.402500
  0
SEQEND
  8
gg1
  0
POLYLINE
  8
gg1
 62
1
 40
0.000000
 41
0.000000
 66
  1
  0
VERTEX
  8
gg1
 10
0.032500
 20
0.395000
  0
VERTEX
  8
gg1
 10
0.047500
 20
0.395000
  0
SEQEND
  8
gg1
  0
POLYLINE
  8
gg1
 62
1
 40
0.000000
 41
0.000000
 66
  1
  0
VERTEX
  8
gg1
 10
0.040000
 20
0.387500
  0
VERTEX
  8
gg1
 10
0.040000
 20
0.402500
  0
SEQEND
  8
gg1
  0
POLYLINE
  8
gg1
 62
1
 40
0.000000
 41
0.000000
 66
  1
  0
VERTEX
  8
gg1
 10
0.182500
 20
0.405000
  0
VERTEX
  8
gg1
 10
0.197500
 20
0.405000
  0
SEQEND
  8
gg1
  0
POLYLINE
  8
gg1
 62
1
 40
0.000000
 41
0.000000
 66
  1
  0
VERTEX
  8
gg1
 10
0.190000
 20
0.397500
  0
VERTEX
  8
gg1
 10
0.190000
 20
0.412500
  0
SEQEND
  8
gg1
  0
POLYLINE
  8
gg1
 62
1
 40
0.000000
 41
0.000000
 66
  1
  0
VERTEX
  8
gg1
 10
0.222500
 20
0.395000
  0
VERTEX
  8
gg1
 10
0.237500
 20
0.395000
  0
SEQEND
  8
gg1
  0
POLYLINE
  8
gg1
 62
1
 40
0.000000
 41
0.000000
 66
  1
  0
VERTEX
  8
gg1
 10
0.230000
 20
0.387500
  0
VERTEX
  8
gg1
 10
0.230000
 20
0.402500
  0
SEQEND
  8
gg1
  0
POLYLINE
  8
gg1
 62
1
 40
0.000000
 41
0.000000
 66
  1
  0
VERTEX
  8
gg1
 10
0.252500
 20
0.395000
  0
VERTEX
  8
gg1
 10
0.267500
 20
0.395000
  0
SEQEND
  8
gg1
  0
POLYLINE
  8
gg1
 62
1
 40
0.000000
 41
0.000000
 66
  1
  0
VERTEX
  8
gg1
 10
0.260000
 20
0.387500
  0
VERTEX
  8
gg1
 10
0.260000
 20
0.402500
  0
SEQEND
  8
gg1
  0
POLYLINE
  8
gg1
 62
1
 40
0.000000
 41
0.000000
 66
  1
  0
VERTEX
  8
gg1
 10
0.302500
 20
0.385000
  0
VERTEX
  8
gg1
 10
0.317500
 20
0.385000
  0
SEQEND
  8
gg1
  0
POLYLINE
  8
gg1
 62
1
 40
0.000000
 41
0.000000
 66
  1
  0
VERTEX
  8
gg1
 10
0.310000
 20
0.377500
  0
VERTEX
  8
gg1
 10
0.310000
 20
0.392500
  0
SEQEND
  8
gg1
  0
POLYLINE
  8
gg1
 62
1
 40
0.000000
 41
0.000000
 66
  1
  0
VERTEX
  8
gg1
 10
0.159900
 20
0.273700
  0
VERTEX
  8
gg1
 10
0.174900
 20
0.273700
  0
SEQEND
  8
gg1
  0
POLYLINE
  8
gg1
 62
1
 40
0.000000
 41
0.000000
 66
  1
  0
VERTEX
  8
gg1
 10
0.167400
 20
0.266200
  0
VERTEX
  8
gg1
 10
0.167400
 20
0.281200
  0
SEQEND
  8
gg1
  0
POLYLINE
  8
gg1
 62
1
 40
0.000000
 41
0.000000
 66
  1
  0
VERTEX
  8
gg1
 10
0.215100
 20
0.273700
  0
VERTEX
  8
gg1
 10
0.230100
 20
0.273700
  0
SEQEND
  8
gg1
  0
POLYLINE
  8
gg1
 62
1
 40
0.000000
 41
0.000000
 66
  1
  0
VERTEX
  8
gg1
 10
0.222600
 20
0.266200
  0
VERTEX
  8
gg1
 10
0.222600
 20
0.281200
  0
SEQEND
  8
gg1
  0
POLYLINE
  8
gg1
 62
1
 40
0.000000
 41
0.000000
 66
  1
  0
VERTEX
  8
gg1
 10
0.215100
 20
0.236300
  0
VERTEX
  8
gg1
 10
0.230100
 20
0.236300
  0
SEQEND
  8
gg1
  0
POLYLINE
  8
gg1
 62
1
 40
0.000000
 41
0.000000
 66
  1
  0
VERTEX
  8
gg1
 10
0.222600
 20
0.228800
  0
VERTEX
  8
gg1
 10
0.222600
 20
0.243800
  0
SEQEND
  8
gg1
  0
POLYLINE
  8
gg1
 62
1
 40
0.000000
 41
0.000000
 66
  1
  0
VERTEX
  8
gg1
 10
0.159900
 20
0.236300
  0
VERTEX
  8
gg1
 10
0.174900
 20
0.236300
  0
SEQEND
  8
gg1
  0
POLYLINE
  8
gg1
 62
1
 40
0.000000
 41
0.000000
 66
  1
  0
VERTEX
  8
gg1
 10
0.167400
 20
0.228800
  0
VERTEX
  8
gg1
 10
0.167400
 20
0.243800
  0
SEQEND
  8
gg1
  0
POLYLINE
  8
gg1
 62
1
 40
0.000000
 41
0.000000
 66
  1
  0
VERTEX
  8
gg1
 10
0.187500
 20
0.255000
  0
VERTEX
  8
gg1
 10
0.202500
 20
0.255000
  0
SEQEND
  8
gg1
  0
POLYLINE
  8
gg1
 62
1
 40
0.000000
 41
0.000000
 66
  1
  0
VERTEX
  8
gg1
 10
0.195000
 20
0.247500
  0
VERTEX
  8
gg1
 10
0.195000
 20
0.262500
  0
SEQEND
  8
gg1
  0
POLYLINE
  8
gg1
 62
1
 40
0.000000
 41
0.000000
 66
  1
  0
VERTEX
  8
gg1
 10
0.050000
 20
-0.383300
  0
VERTEX
  8
gg1
 10
0.058300
 20
-0.375000
  0
VERTEX
  8
gg1
 10
0.075000
 20
-0.375000
  0
VERTEX
  8
gg1
 10
0.083300
 20
-0.383300
  0
VERTEX
  8
gg1
 10
0.083300
 20
-0.391700
  0
VERTEX
  8
gg1
 10
0.075000
 20
-0.400000
  0
VERTEX
  8
gg1
 10
0.066700
 20
-0.400000
  0
VERTEX
  8
gg1
 10
0.075000
 20
-0.400000
  0
VERTEX
  8
gg1
 10
0.083300
 20
-0.408300
  0
VERTEX
  8
gg1
 10
0.083300
 20
-0.416700
  0
VERTEX
  8
gg1
 10
0.075000
 20
-0.425000
  0
VERTEX
  8
gg1
 10
0.058300
 20
-0.425000
  0
VERTEX
  8
gg1
 10
0.050000
 20
-0.416700
  0
SEQEND
  8
gg1
  0
POLYLINE
  8
gg1
 62
1
 40
0.000000
 41
0.000000
 66
  1
  0
VERTEX
  8
gg1
 10
0.133300
 20
-0.375000
  0
VERTEX
  8
gg1
 10
0.100000
 20
-0.375000
  0
VERTEX
  8
gg1
 10
0.100000
 20
-0.400000
  0
VERTEX
  8
gg1
 10
0.116600
 20
-0.391700
  0
VERTEX
  8
gg1
 10
0.125000
 20
-0.391700
  0
VERTEX
  8
gg1
 10
0.133300
 20
-0.400000
  0
VERTEX
  8
gg1
 10
0.133300
 20
-0.416700
  0
VERTEX
  8
gg1
 10
0.125000
 20
-0.425000
  0
VERTEX
  8
gg1
 10
0.108300
 20
-0.425000
  0
VERTEX
  8
gg1
 10
0.100000
 20
-0.416700
  0
SEQEND
  8
gg1
  0
POLYLINE
  8
gg1
 62
1
 40
0.000000
 41
0.000000
 66
  1
  0
VERTEX
  8
gg1
 10
0.150000
 20
-0.383300
  0
VERTEX
  8
gg1
 10
0.158300
 20
-0.375000
  0
VERTEX
  8
gg1
 10
0.175000
 20
-0.375000
  0
VERTEX
  8
gg1
 10
0.183300
 20
-0.383300
  0
VERTEX
  8
gg1
 10
0.183300
 20
-0.416700
  0
VERTEX
  8
gg1
 10
0.175000
 20
-0.425000
  0
VERTEX
  8
gg1
 10
0.158300
 20
-0.425000
  0
VERTEX
  8
gg1
 10
0.150000
 20
-0.416700
  0
VERTEX
  8
gg1
 10
0.150000
 20
-0.383300
  0
SEQEND
  8
gg1
  0
POLYLINE
  8
gg1
 62
1
 40
0.000000
 41
0.000000
 66
  1
  0
VERTEX
  8
gg1
 10
0.200000
 20
-0.425000
  0
VERTEX
  8
gg1
 10
0.200000
 20
-0.391700
  0
VERTEX
  8
gg1
 10
0.208300
 20
-0.391700
  0
VERTEX
  8
gg1
 10
0.216600
 20
-0.400000
  0
VERTEX
  8
gg1
 10
0.216600
 20
-0.425000
  0
VERTEX
  8
gg1
 10
0.216600
 20
-0.400000
  0
VERTEX
  8
gg1
 10
0.224900
 20
-0.391700
  0
VERTEX
  8
gg1
 10
0.233300
 20
-0.400000
  0
VERTEX
  8
gg1
 10
0.233300
 20
-0.425000
  0
SEQEND
  8
gg1
  0
POLYLINE
  8
gg1
 62
1
 40
0.000000
 41
0.000000
 66
  1
  0
VERTEX
  8
gg1
 10
0.249900
 20
-0.425000
  0
VERTEX
  8
gg1
 10
0.266600
 20
-0.425000
  0
VERTEX
  8
gg1
 10
0.258300
 20
-0.425000
  0
VERTEX
  8
gg1
 10
0.258300
 20
-0.391700
  0
VERTEX
  8
gg1
 10
0.249900
 20
-0.391700
  0
SEQEND
  8
gg1
  0
POLYLINE
  8
gg1
 62
1
 40
0.000000
 41
0.000000
 66
  1
  0
VERTEX
  8
gg1
 10
0.291600
 20
-0.425000
  0
VERTEX
  8
gg1
 10
0.308300
 20
-0.425000
  0
VERTEX
  8
gg1
 10
0.299900
 20
-0.425000
  0
VERTEX
  8
gg1
 10
0.299900
 20
-0.375000
  0
VERTEX
  8
gg1
 10
0.291600
 20
-0.375000
  0
SEQEND
  8
gg1
  0
POLYLINE
  8
gg1
 62
1
 40
0.000000
 41
0.000000
 66
  1
  0
VERTEX
  8
gg1
 10
-0.125000
 20
0.105000
  0
VERTEX
  8
gg1
 10
-0.185000
 20
0.105000
  0
VERTEX
  8
gg1
 10
-0.155000
 20
0.075000
  0
VERTEX
  8
gg1
 10
-0.155000
 20
0.115000
  0
SEQEND
  8
gg1
  0
POLYLINE
  8
gg1
 62
1
 40
0.000000
 41
0.000000
 66
  1
  0
VERTEX
  8
gg1
 10
-0.185000
 20
0.135000
  0
VERTEX
  8
gg1
 10
-0.185000
 20
0.175000
  0
VERTEX
  8
gg1
 10
-0.175000
 20
0.175000
  0
VERTEX
  8
gg1
 10
-0.135000
 20
0.135000
  0
VERTEX
  8
gg1
 10
-0.125000
 20
0.135000
  0
SEQEND
  8
gg1
  0
POLYLINE
  8
gg1
 62
1
 40
0.000000
 41
0.000000
 66
  1
  0
VERTEX
  8
gg1
 10
-0.185000
 20
0.234900
  0
VERTEX
  8
gg1
 10
-0.185000
 20
0.195000
  0
VERTEX
  8
gg1
 10
-0.155000
 20
0.195000
  0
VERTEX
  8
gg1
 10
-0.165000
 20
0.215000
  0
VERTEX
  8
gg1
 10
-0.165000
 20
0.225000
  0
VERTEX
  8
gg1
 10
-0.155000
 20
0.234900
  0
VERTEX
  8
gg1
 10
-0.135000
 20
0.234900
  0
VERTEX
  8
gg1
 10
-0.125000
 20
0.225000
  0
VERTEX
  8
gg1
 10
-0.125000
 20
0.205000
  0
VERTEX
  8
gg1
 10
-0.135000
 20
0.195000
  0
SEQEND
  8
gg1
  0
POLYLINE
  8
gg1
 62
1
 40
0.000000
 41
0.000000
 66
  1
  0
VERTEX
  8
gg1
 10
-0.125000
 20
0.254900
  0
VERTEX
  8
gg1
 10
-0.165000
 20
0.254900
  0
VERTEX
  8
gg1
 10
-0.165000
 20
0.264900
  0
VERTEX
  8
gg1
 10
-0.155000
 20
0.274900
  0
VERTEX
  8
gg1
 10
-0.125000
 20
0.274900
  0
VERTEX
  8
gg1
 10
-0.155000
 20
0.274900
  0
VERTEX
  8
gg1
 10
-0.165000
 20
0.284900
  0
VERTEX
  8
gg1
 10
-0.155000
 20
0.294900
  0
VERTEX
  8
gg1
 10
-0.125000
 20
0.294900
  0
SEQEND
  8
gg1
  0
POLYLINE
  8
gg1
 62
1
 40
0.000000
 41
0.000000
 66
  1
  0
VERTEX
  8
gg1
 10
-0.125000
 20
0.314900
  0
VERTEX
  8
gg1
 10
-0.125000
 20
0.334900
  0
VERTEX
  8
gg1
 10
-0.125000
 20
0.324900
  0
VERTEX
  8
gg1
 10
-0.165000
 20
0.324900
  0
VERTEX
  8
gg1
 10
-0.165000
 20
0.314900
  0
SEQEND
  8
gg1
  0
POLYLINE
  8
gg1
 62
1
 40
0.000000
 41
0.000000
 66
  1
  0
VERTEX
  8
gg1
 10
-0.125000
 20
0.364900
  0
VERTEX
  8
gg1
 10
-0.125000
 20
0.384900
  0
VERTEX
  8
gg1
 10
-0.125000
 20
0.374900
  0
VERTEX
  8
gg1
 10
-0.185000
 20
0.374900
  0
VERTEX
  8
gg1
 10
-0.185000
 20
0.364900
  0
SEQEND
  8
gg1
  0
ENDSEC
  0
EOF
