solid ascii
  facet normal 0.000000e+000 -1.000000e+000 0.000000e+000
    outer loop
      vertex   -1.238250e+002 2.000250e+002 0.000000e+000
      vertex   -8.360833e+001 2.000250e+002 0.000000e+000
      vertex   -1.238250e+002 2.000250e+002 2.540000e+000
    endloop
  endfacet
  facet normal 0.000000e+000 -1.000000e+000 0.000000e+000
    outer loop
      vertex   -1.238250e+002 2.000250e+002 2.540000e+000
      vertex   -8.360833e+001 2.000250e+002 0.000000e+000
      vertex   -8.360833e+001 2.000250e+002 2.540000e+000
    endloop
  endfacet
  facet normal 0.000000e+000 -1.000000e+000 0.000000e+000
    outer loop
      vertex   -8.360833e+001 2.000250e+002 2.540000e+000
      vertex   -8.360833e+001 2.000250e+002 0.000000e+000
      vertex   -4.339167e+001 2.000250e+002 0.000000e+000
    endloop
  endfacet
  facet normal 0.000000e+000 -1.000000e+000 0.000000e+000
    outer loop
      vertex   -4.339167e+001 2.000250e+002 2.540000e+000
      vertex   -4.339167e+001 2.000250e+002 0.000000e+000
      vertex   -3.175000e+000 2.000250e+002 0.000000e+000
    endloop
  endfacet
  facet normal -0.000000e+000 -1.000000e+000 -0.000000e+000
    outer loop
      vertex   -3.175000e+000 2.000250e+002 2.540000e+000
      vertex   -4.339167e+001 2.000250e+002 2.540000e+000
      vertex   -3.175000e+000 2.000250e+002 0.000000e+000
    endloop
  endfacet
  facet normal 0.000000e+000 -1.000000e+000 0.000000e+000
    outer loop
      vertex   -8.360833e+001 2.000250e+002 2.540000e+000
      vertex   -4.339167e+001 2.000250e+002 0.000000e+000
      vertex   -4.339167e+001 2.000250e+002 2.540000e+000
    endloop
  endfacet
  facet normal 1.000000e+000 0.000000e+000 -0.000000e+000
    outer loop
      vertex   -1.238250e+002 3.175000e+000 0.000000e+000
      vertex   -1.238250e+002 5.238750e+001 0.000000e+000
      vertex   -1.238250e+002 3.175000e+000 2.540000e+000
    endloop
  endfacet
  facet normal 1.000000e+000 -0.000000e+000 0.000000e+000
    outer loop
      vertex   -1.238250e+002 3.175000e+000 2.540000e+000
      vertex   -1.238250e+002 5.238750e+001 0.000000e+000
      vertex   -1.238250e+002 5.238750e+001 2.540000e+000
    endloop
  endfacet
  facet normal 1.000000e+000 -0.000000e+000 0.000000e+000
    outer loop
      vertex   -1.238250e+002 5.238750e+001 2.540000e+000
      vertex   -1.238250e+002 5.238750e+001 0.000000e+000
      vertex   -1.238250e+002 1.016000e+002 0.000000e+000
    endloop
  endfacet
  facet normal 1.000000e+000 -0.000000e+000 0.000000e+000
    outer loop
      vertex   -1.238250e+002 1.016000e+002 2.540000e+000
      vertex   -1.238250e+002 1.016000e+002 0.000000e+000
      vertex   -1.238250e+002 1.508125e+002 0.000000e+000
    endloop
  endfacet
  facet normal 1.000000e+000 -0.000000e+000 0.000000e+000
    outer loop
      vertex   -1.238250e+002 1.508125e+002 2.540000e+000
      vertex   -1.238250e+002 1.508125e+002 0.000000e+000
      vertex   -1.238250e+002 2.000250e+002 0.000000e+000
    endloop
  endfacet
  facet normal 1.000000e+000 0.000000e+000 0.000000e+000
    outer loop
      vertex   -1.238250e+002 2.000250e+002 2.540000e+000
      vertex   -1.238250e+002 1.508125e+002 2.540000e+000
      vertex   -1.238250e+002 2.000250e+002 0.000000e+000
    endloop
  endfacet
  facet normal 1.000000e+000 -0.000000e+000 0.000000e+000
    outer loop
      vertex   -1.238250e+002 5.238750e+001 2.540000e+000
      vertex   -1.238250e+002 1.016000e+002 0.000000e+000
      vertex   -1.238250e+002 1.016000e+002 2.540000e+000
    endloop
  endfacet
  facet normal 1.000000e+000 -0.000000e+000 0.000000e+000
    outer loop
      vertex   -1.238250e+002 1.016000e+002 2.540000e+000
      vertex   -1.238250e+002 1.508125e+002 0.000000e+000
      vertex   -1.238250e+002 1.508125e+002 2.540000e+000
    endloop
  endfacet
  facet normal 0.000000e+000 1.000000e+000 -6.993531e-015
    outer loop
      vertex   -3.175000e+000 3.175000e+000 0.000000e+000
      vertex   -4.339167e+001 3.175000e+000 0.000000e+000
      vertex   -3.175000e+000 3.175000e+000 2.540000e+000
    endloop
  endfacet
  facet normal -4.416967e-016 1.000000e+000 0.000000e+000
    outer loop
      vertex   -3.175000e+000 3.175000e+000 2.540000e+000
      vertex   -4.339167e+001 3.175000e+000 0.000000e+000
      vertex   -4.339167e+001 3.175000e+000 2.540000e+000
    endloop
  endfacet
  facet normal 0.000000e+000 1.000000e+000 0.000000e+000
    outer loop
      vertex   -4.339167e+001 3.175000e+000 2.540000e+000
      vertex   -4.339167e+001 3.175000e+000 0.000000e+000
      vertex   -8.360833e+001 3.175000e+000 0.000000e+000
    endloop
  endfacet
  facet normal 0.000000e+000 1.000000e+000 0.000000e+000
    outer loop
      vertex   -8.360833e+001 3.175000e+000 2.540000e+000
      vertex   -8.360833e+001 3.175000e+000 0.000000e+000
      vertex   -1.238250e+002 3.175000e+000 0.000000e+000
    endloop
  endfacet
  facet normal 4.416967e-016 1.000000e+000 -6.993531e-015
    outer loop
      vertex   -1.238250e+002 3.175000e+000 2.540000e+000
      vertex   -8.360833e+001 3.175000e+000 2.540000e+000
      vertex   -1.238250e+002 3.175000e+000 0.000000e+000
    endloop
  endfacet
  facet normal 0.000000e+000 1.000000e+000 -0.000000e+000
    outer loop
      vertex   -4.339167e+001 3.175000e+000 2.540000e+000
      vertex   -8.360833e+001 3.175000e+000 0.000000e+000
      vertex   -8.360833e+001 3.175000e+000 2.540000e+000
    endloop
  endfacet
  facet normal -1.000000e+000 0.000000e+000 0.000000e+000
    outer loop
      vertex   -3.175000e+000 2.000250e+002 0.000000e+000
      vertex   -3.175000e+000 1.508125e+002 0.000000e+000
      vertex   -3.175000e+000 2.000250e+002 2.540000e+000
    endloop
  endfacet
  facet normal -1.000000e+000 -0.000000e+000 0.000000e+000
    outer loop
      vertex   -3.175000e+000 2.000250e+002 2.540000e+000
      vertex   -3.175000e+000 1.508125e+002 0.000000e+000
      vertex   -3.175000e+000 1.508125e+002 2.540000e+000
    endloop
  endfacet
  facet normal -1.000000e+000 -0.000000e+000 -0.000000e+000
    outer loop
      vertex   -3.175000e+000 1.508125e+002 2.540000e+000
      vertex   -3.175000e+000 1.508125e+002 0.000000e+000
      vertex   -3.175000e+000 1.016000e+002 0.000000e+000
    endloop
  endfacet
  facet normal -1.000000e+000 -0.000000e+000 -0.000000e+000
    outer loop
      vertex   -3.175000e+000 1.016000e+002 2.540000e+000
      vertex   -3.175000e+000 1.016000e+002 0.000000e+000
      vertex   -3.175000e+000 5.238750e+001 0.000000e+000
    endloop
  endfacet
  facet normal -1.000000e+000 -0.000000e+000 -0.000000e+000
    outer loop
      vertex   -3.175000e+000 5.238750e+001 2.540000e+000
      vertex   -3.175000e+000 5.238750e+001 0.000000e+000
      vertex   -3.175000e+000 3.175000e+000 0.000000e+000
    endloop
  endfacet
  facet normal -1.000000e+000 0.000000e+000 -0.000000e+000
    outer loop
      vertex   -3.175000e+000 3.175000e+000 2.540000e+000
      vertex   -3.175000e+000 5.238750e+001 2.540000e+000
      vertex   -3.175000e+000 3.175000e+000 0.000000e+000
    endloop
  endfacet
  facet normal -1.000000e+000 -0.000000e+000 0.000000e+000
    outer loop
      vertex   -3.175000e+000 1.508125e+002 2.540000e+000
      vertex   -3.175000e+000 1.016000e+002 0.000000e+000
      vertex   -3.175000e+000 1.016000e+002 2.540000e+000
    endloop
  endfacet
  facet normal -1.000000e+000 -0.000000e+000 0.000000e+000
    outer loop
      vertex   -3.175000e+000 1.016000e+002 2.540000e+000
      vertex   -3.175000e+000 5.238750e+001 0.000000e+000
      vertex   -3.175000e+000 5.238750e+001 2.540000e+000
    endloop
  endfacet
  facet normal 1.000000e+000 0.000000e+000 -0.000000e+000
    outer loop
      vertex   0.000000e+000 0.000000e+000 0.000000e+000
      vertex   0.000000e+000 5.080000e+001 0.000000e+000
      vertex   0.000000e+000 0.000000e+000 2.540000e+000
    endloop
  endfacet
  facet normal 1.000000e+000 -0.000000e+000 0.000000e+000
    outer loop
      vertex   0.000000e+000 0.000000e+000 2.540000e+000
      vertex   0.000000e+000 5.080000e+001 0.000000e+000
      vertex   0.000000e+000 5.080000e+001 2.540000e+000
    endloop
  endfacet
  facet normal 1.000000e+000 -0.000000e+000 0.000000e+000
    outer loop
      vertex   0.000000e+000 5.080000e+001 2.540000e+000
      vertex   0.000000e+000 5.080000e+001 0.000000e+000
      vertex   0.000000e+000 1.016000e+002 0.000000e+000
    endloop
  endfacet
  facet normal 1.000000e+000 -0.000000e+000 0.000000e+000
    outer loop
      vertex   0.000000e+000 1.016000e+002 2.540000e+000
      vertex   0.000000e+000 1.016000e+002 0.000000e+000
      vertex   0.000000e+000 1.524000e+002 0.000000e+000
    endloop
  endfacet
  facet normal 1.000000e+000 -0.000000e+000 0.000000e+000
    outer loop
      vertex   0.000000e+000 1.524000e+002 2.540000e+000
      vertex   0.000000e+000 1.524000e+002 0.000000e+000
      vertex   0.000000e+000 2.032000e+002 0.000000e+000
    endloop
  endfacet
  facet normal 1.000000e+000 0.000000e+000 0.000000e+000
    outer loop
      vertex   0.000000e+000 2.032000e+002 2.540000e+000
      vertex   0.000000e+000 1.524000e+002 2.540000e+000
      vertex   0.000000e+000 2.032000e+002 0.000000e+000
    endloop
  endfacet
  facet normal 1.000000e+000 -0.000000e+000 0.000000e+000
    outer loop
      vertex   0.000000e+000 5.080000e+001 2.540000e+000
      vertex   0.000000e+000 1.016000e+002 0.000000e+000
      vertex   0.000000e+000 1.016000e+002 2.540000e+000
    endloop
  endfacet
  facet normal 1.000000e+000 -0.000000e+000 0.000000e+000
    outer loop
      vertex   0.000000e+000 1.016000e+002 2.540000e+000
      vertex   0.000000e+000 1.524000e+002 0.000000e+000
      vertex   0.000000e+000 1.524000e+002 2.540000e+000
    endloop
  endfacet
  facet normal 0.000000e+000 -1.000000e+000 0.000000e+000
    outer loop
      vertex   -1.270000e+002 0.000000e+000 0.000000e+000
      vertex   -8.466667e+001 0.000000e+000 0.000000e+000
      vertex   -1.270000e+002 0.000000e+000 2.540000e+000
    endloop
  endfacet
  facet normal 0.000000e+000 -1.000000e+000 0.000000e+000
    outer loop
      vertex   -1.270000e+002 0.000000e+000 2.540000e+000
      vertex   -8.466667e+001 0.000000e+000 0.000000e+000
      vertex   -8.466667e+001 0.000000e+000 2.540000e+000
    endloop
  endfacet
  facet normal 0.000000e+000 -1.000000e+000 0.000000e+000
    outer loop
      vertex   -8.466667e+001 0.000000e+000 2.540000e+000
      vertex   -8.466667e+001 0.000000e+000 0.000000e+000
      vertex   -4.233333e+001 0.000000e+000 0.000000e+000
    endloop
  endfacet
  facet normal 0.000000e+000 -1.000000e+000 0.000000e+000
    outer loop
      vertex   -4.233333e+001 0.000000e+000 2.540000e+000
      vertex   -4.233333e+001 0.000000e+000 0.000000e+000
      vertex   0.000000e+000 0.000000e+000 0.000000e+000
    endloop
  endfacet
  facet normal -0.000000e+000 -1.000000e+000 -0.000000e+000
    outer loop
      vertex   0.000000e+000 0.000000e+000 2.540000e+000
      vertex   -4.233333e+001 0.000000e+000 2.540000e+000
      vertex   0.000000e+000 0.000000e+000 0.000000e+000
    endloop
  endfacet
  facet normal 0.000000e+000 -1.000000e+000 0.000000e+000
    outer loop
      vertex   -8.466667e+001 0.000000e+000 2.540000e+000
      vertex   -4.233333e+001 0.000000e+000 0.000000e+000
      vertex   -4.233333e+001 0.000000e+000 2.540000e+000
    endloop
  endfacet
  facet normal -1.000000e+000 0.000000e+000 0.000000e+000
    outer loop
      vertex   -1.270000e+002 2.032000e+002 0.000000e+000
      vertex   -1.270000e+002 1.524000e+002 0.000000e+000
      vertex   -1.270000e+002 2.032000e+002 2.540000e+000
    endloop
  endfacet
  facet normal -1.000000e+000 -0.000000e+000 0.000000e+000
    outer loop
      vertex   -1.270000e+002 2.032000e+002 2.540000e+000
      vertex   -1.270000e+002 1.524000e+002 0.000000e+000
      vertex   -1.270000e+002 1.524000e+002 2.540000e+000
    endloop
  endfacet
  facet normal -1.000000e+000 -0.000000e+000 -0.000000e+000
    outer loop
      vertex   -1.270000e+002 1.524000e+002 2.540000e+000
      vertex   -1.270000e+002 1.524000e+002 0.000000e+000
      vertex   -1.270000e+002 1.016000e+002 0.000000e+000
    endloop
  endfacet
  facet normal -1.000000e+000 -0.000000e+000 -0.000000e+000
    outer loop
      vertex   -1.270000e+002 1.016000e+002 2.540000e+000
      vertex   -1.270000e+002 1.016000e+002 0.000000e+000
      vertex   -1.270000e+002 5.080000e+001 0.000000e+000
    endloop
  endfacet
  facet normal -1.000000e+000 -0.000000e+000 -0.000000e+000
    outer loop
      vertex   -1.270000e+002 5.080000e+001 2.540000e+000
      vertex   -1.270000e+002 5.080000e+001 0.000000e+000
      vertex   -1.270000e+002 0.000000e+000 0.000000e+000
    endloop
  endfacet
  facet normal -1.000000e+000 0.000000e+000 -0.000000e+000
    outer loop
      vertex   -1.270000e+002 0.000000e+000 2.540000e+000
      vertex   -1.270000e+002 5.080000e+001 2.540000e+000
      vertex   -1.270000e+002 0.000000e+000 0.000000e+000
    endloop
  endfacet
  facet normal -1.000000e+000 -0.000000e+000 0.000000e+000
    outer loop
      vertex   -1.270000e+002 1.524000e+002 2.540000e+000
      vertex   -1.270000e+002 1.016000e+002 0.000000e+000
      vertex   -1.270000e+002 1.016000e+002 2.540000e+000
    endloop
  endfacet
  facet normal -1.000000e+000 -0.000000e+000 0.000000e+000
    outer loop
      vertex   -1.270000e+002 1.016000e+002 2.540000e+000
      vertex   -1.270000e+002 5.080000e+001 0.000000e+000
      vertex   -1.270000e+002 5.080000e+001 2.540000e+000
    endloop
  endfacet
  facet normal 0.000000e+000 1.000000e+000 -0.000000e+000
    outer loop
      vertex   0.000000e+000 2.032000e+002 0.000000e+000
      vertex   -4.233333e+001 2.032000e+002 0.000000e+000
      vertex   0.000000e+000 2.032000e+002 2.540000e+000
    endloop
  endfacet
  facet normal 0.000000e+000 1.000000e+000 -0.000000e+000
    outer loop
      vertex   0.000000e+000 2.032000e+002 2.540000e+000
      vertex   -4.233333e+001 2.032000e+002 0.000000e+000
      vertex   -4.233333e+001 2.032000e+002 2.540000e+000
    endloop
  endfacet
  facet normal 0.000000e+000 1.000000e+000 0.000000e+000
    outer loop
      vertex   -4.233333e+001 2.032000e+002 2.540000e+000
      vertex   -4.233333e+001 2.032000e+002 0.000000e+000
      vertex   -8.466667e+001 2.032000e+002 0.000000e+000
    endloop
  endfacet
  facet normal 0.000000e+000 1.000000e+000 0.000000e+000
    outer loop
      vertex   -8.466667e+001 2.032000e+002 2.540000e+000
      vertex   -8.466667e+001 2.032000e+002 0.000000e+000
      vertex   -1.270000e+002 2.032000e+002 0.000000e+000
    endloop
  endfacet
  facet normal -0.000000e+000 1.000000e+000 0.000000e+000
    outer loop
      vertex   -1.270000e+002 2.032000e+002 2.540000e+000
      vertex   -8.466667e+001 2.032000e+002 2.540000e+000
      vertex   -1.270000e+002 2.032000e+002 0.000000e+000
    endloop
  endfacet
  facet normal 0.000000e+000 1.000000e+000 -0.000000e+000
    outer loop
      vertex   -4.233333e+001 2.032000e+002 2.540000e+000
      vertex   -8.466667e+001 2.032000e+002 0.000000e+000
      vertex   -8.466667e+001 2.032000e+002 2.540000e+000
    endloop
  endfacet
  facet normal 0.000000e+000 -0.000000e+000 1.000000e+000
    outer loop
      vertex   0.000000e+000 1.524000e+002 2.540000e+000
      vertex   0.000000e+000 2.032000e+002 2.540000e+000
      vertex   -3.175000e+000 2.000250e+002 2.540000e+000
    endloop
  endfacet
  facet normal 0.000000e+000 -0.000000e+000 1.000000e+000
    outer loop
      vertex   -3.175000e+000 1.508125e+002 2.540000e+000
      vertex   0.000000e+000 1.524000e+002 2.540000e+000
      vertex   -3.175000e+000 2.000250e+002 2.540000e+000
    endloop
  endfacet
  facet normal -0.000000e+000 0.000000e+000 1.000000e+000
    outer loop
      vertex   -3.175000e+000 1.508125e+002 2.540000e+000
      vertex   0.000000e+000 1.016000e+002 2.540000e+000
      vertex   0.000000e+000 1.524000e+002 2.540000e+000
    endloop
  endfacet
  facet normal -0.000000e+000 0.000000e+000 1.000000e+000
    outer loop
      vertex   -3.175000e+000 1.508125e+002 2.540000e+000
      vertex   -3.175000e+000 1.016000e+002 2.540000e+000
      vertex   0.000000e+000 1.016000e+002 2.540000e+000
    endloop
  endfacet
  facet normal 0.000000e+000 0.000000e+000 1.000000e+000
    outer loop
      vertex   0.000000e+000 1.016000e+002 2.540000e+000
      vertex   -3.175000e+000 1.016000e+002 2.540000e+000
      vertex   -3.175000e+000 5.238750e+001 2.540000e+000
    endloop
  endfacet
  facet normal 0.000000e+000 0.000000e+000 1.000000e+000
    outer loop
      vertex   0.000000e+000 5.080000e+001 2.540000e+000
      vertex   -3.175000e+000 5.238750e+001 2.540000e+000
      vertex   -3.175000e+000 3.175000e+000 2.540000e+000
    endloop
  endfacet
  facet normal 0.000000e+000 0.000000e+000 1.000000e+000
    outer loop
      vertex   0.000000e+000 0.000000e+000 2.540000e+000
      vertex   -3.175000e+000 3.175000e+000 2.540000e+000
      vertex   -4.233333e+001 0.000000e+000 2.540000e+000
    endloop
  endfacet
  facet normal 0.000000e+000 -0.000000e+000 1.000000e+000
    outer loop
      vertex   0.000000e+000 0.000000e+000 2.540000e+000
      vertex   0.000000e+000 5.080000e+001 2.540000e+000
      vertex   -3.175000e+000 3.175000e+000 2.540000e+000
    endloop
  endfacet
  facet normal -0.000000e+000 0.000000e+000 1.000000e+000
    outer loop
      vertex   -8.466667e+001 2.032000e+002 2.540000e+000
      vertex   -4.339167e+001 2.000250e+002 2.540000e+000
      vertex   -4.233333e+001 2.032000e+002 2.540000e+000
    endloop
  endfacet
  facet normal -0.000000e+000 0.000000e+000 1.000000e+000
    outer loop
      vertex   -8.466667e+001 2.032000e+002 2.540000e+000
      vertex   -8.360833e+001 2.000250e+002 2.540000e+000
      vertex   -4.339167e+001 2.000250e+002 2.540000e+000
    endloop
  endfacet
  facet normal -0.000000e+000 0.000000e+000 1.000000e+000
    outer loop
      vertex   -8.466667e+001 2.032000e+002 2.540000e+000
      vertex   -1.238250e+002 2.000250e+002 2.540000e+000
      vertex   -8.360833e+001 2.000250e+002 2.540000e+000
    endloop
  endfacet
  facet normal 0.000000e+000 0.000000e+000 1.000000e+000
    outer loop
      vertex   -8.466667e+001 2.032000e+002 2.540000e+000
      vertex   -1.270000e+002 2.032000e+002 2.540000e+000
      vertex   -1.238250e+002 2.000250e+002 2.540000e+000
    endloop
  endfacet
  facet normal 0.000000e+000 0.000000e+000 1.000000e+000
    outer loop
      vertex   -1.238250e+002 2.000250e+002 2.540000e+000
      vertex   -1.270000e+002 2.032000e+002 2.540000e+000
      vertex   -1.270000e+002 1.524000e+002 2.540000e+000
    endloop
  endfacet
  facet normal 0.000000e+000 0.000000e+000 1.000000e+000
    outer loop
      vertex   -1.238250e+002 1.508125e+002 2.540000e+000
      vertex   -1.270000e+002 1.524000e+002 2.540000e+000
      vertex   -1.270000e+002 1.016000e+002 2.540000e+000
    endloop
  endfacet
  facet normal 0.000000e+000 0.000000e+000 1.000000e+000
    outer loop
      vertex   -1.238250e+002 1.016000e+002 2.540000e+000
      vertex   -1.270000e+002 1.016000e+002 2.540000e+000
      vertex   -1.238250e+002 5.238750e+001 2.540000e+000
    endloop
  endfacet
  facet normal 0.000000e+000 -0.000000e+000 1.000000e+000
    outer loop
      vertex   -1.238250e+002 1.016000e+002 2.540000e+000
      vertex   -1.238250e+002 1.508125e+002 2.540000e+000
      vertex   -1.270000e+002 1.016000e+002 2.540000e+000
    endloop
  endfacet
  facet normal 0.000000e+000 0.000000e+000 1.000000e+000
    outer loop
      vertex   -1.238250e+002 2.000250e+002 2.540000e+000
      vertex   -1.270000e+002 1.524000e+002 2.540000e+000
      vertex   -1.238250e+002 1.508125e+002 2.540000e+000
    endloop
  endfacet
  facet normal -0.000000e+000 0.000000e+000 1.000000e+000
    outer loop
      vertex   -1.270000e+002 1.016000e+002 2.540000e+000
      vertex   -1.270000e+002 5.080000e+001 2.540000e+000
      vertex   -1.238250e+002 5.238750e+001 2.540000e+000
    endloop
  endfacet
  facet normal 0.000000e+000 0.000000e+000 1.000000e+000
    outer loop
      vertex   -1.238250e+002 5.238750e+001 2.540000e+000
      vertex   -1.270000e+002 5.080000e+001 2.540000e+000
      vertex   -1.238250e+002 3.175000e+000 2.540000e+000
    endloop
  endfacet
  facet normal 0.000000e+000 0.000000e+000 1.000000e+000
    outer loop
      vertex   -1.238250e+002 3.175000e+000 2.540000e+000
      vertex   -1.270000e+002 5.080000e+001 2.540000e+000
      vertex   -1.270000e+002 0.000000e+000 2.540000e+000
    endloop
  endfacet
  facet normal 0.000000e+000 0.000000e+000 1.000000e+000
    outer loop
      vertex   -8.466667e+001 0.000000e+000 2.540000e+000
      vertex   -1.238250e+002 3.175000e+000 2.540000e+000
      vertex   -1.270000e+002 0.000000e+000 2.540000e+000
    endloop
  endfacet
  facet normal 0.000000e+000 -0.000000e+000 1.000000e+000
    outer loop
      vertex   -8.466667e+001 0.000000e+000 2.540000e+000
      vertex   -8.360833e+001 3.175000e+000 2.540000e+000
      vertex   -1.238250e+002 3.175000e+000 2.540000e+000
    endloop
  endfacet
  facet normal 0.000000e+000 -0.000000e+000 1.000000e+000
    outer loop
      vertex   -8.466667e+001 0.000000e+000 2.540000e+000
      vertex   -4.233333e+001 0.000000e+000 2.540000e+000
      vertex   -8.360833e+001 3.175000e+000 2.540000e+000
    endloop
  endfacet
  facet normal -0.000000e+000 -0.000000e+000 1.000000e+000
    outer loop
      vertex   -8.360833e+001 3.175000e+000 2.540000e+000
      vertex   -4.233333e+001 0.000000e+000 2.540000e+000
      vertex   -4.339167e+001 3.175000e+000 2.540000e+000
    endloop
  endfacet
  facet normal -0.000000e+000 0.000000e+000 1.000000e+000
    outer loop
      vertex   -4.339167e+001 3.175000e+000 2.540000e+000
      vertex   -4.233333e+001 0.000000e+000 2.540000e+000
      vertex   -3.175000e+000 3.175000e+000 2.540000e+000
    endloop
  endfacet
  facet normal 0.000000e+000 -0.000000e+000 1.000000e+000
    outer loop
      vertex   0.000000e+000 5.080000e+001 2.540000e+000
      vertex   0.000000e+000 1.016000e+002 2.540000e+000
      vertex   -3.175000e+000 5.238750e+001 2.540000e+000
    endloop
  endfacet
  facet normal 0.000000e+000 -0.000000e+000 1.000000e+000
    outer loop
      vertex   -4.339167e+001 2.000250e+002 2.540000e+000
      vertex   -3.175000e+000 2.000250e+002 2.540000e+000
      vertex   -4.233333e+001 2.032000e+002 2.540000e+000
    endloop
  endfacet
  facet normal -0.000000e+000 0.000000e+000 1.000000e+000
    outer loop
      vertex   -4.233333e+001 2.032000e+002 2.540000e+000
      vertex   -3.175000e+000 2.000250e+002 2.540000e+000
      vertex   0.000000e+000 2.032000e+002 2.540000e+000
    endloop
  endfacet
  facet normal 0.000000e+000 0.000000e+000 -1.000000e+000
    outer loop
      vertex   -1.270000e+002 1.524000e+002 0.000000e+000
      vertex   -1.270000e+002 2.032000e+002 0.000000e+000
      vertex   -1.238250e+002 2.000250e+002 0.000000e+000
    endloop
  endfacet
  facet normal 0.000000e+000 0.000000e+000 -1.000000e+000
    outer loop
      vertex   -1.238250e+002 1.508125e+002 0.000000e+000
      vertex   -1.270000e+002 1.524000e+002 0.000000e+000
      vertex   -1.238250e+002 2.000250e+002 0.000000e+000
    endloop
  endfacet
  facet normal -0.000000e+000 0.000000e+000 -1.000000e+000
    outer loop
      vertex   -1.238250e+002 1.508125e+002 0.000000e+000
      vertex   -1.270000e+002 1.016000e+002 0.000000e+000
      vertex   -1.270000e+002 1.524000e+002 0.000000e+000
    endloop
  endfacet
  facet normal -0.000000e+000 -0.000000e+000 -1.000000e+000
    outer loop
      vertex   -1.238250e+002 1.508125e+002 0.000000e+000
      vertex   -1.238250e+002 1.016000e+002 0.000000e+000
      vertex   -1.270000e+002 1.016000e+002 0.000000e+000
    endloop
  endfacet
  facet normal 0.000000e+000 0.000000e+000 -1.000000e+000
    outer loop
      vertex   -1.270000e+002 1.016000e+002 0.000000e+000
      vertex   -1.238250e+002 1.016000e+002 0.000000e+000
      vertex   -1.238250e+002 5.238750e+001 0.000000e+000
    endloop
  endfacet
  facet normal 0.000000e+000 0.000000e+000 -1.000000e+000
    outer loop
      vertex   -1.270000e+002 5.080000e+001 0.000000e+000
      vertex   -1.238250e+002 5.238750e+001 0.000000e+000
      vertex   -1.238250e+002 3.175000e+000 0.000000e+000
    endloop
  endfacet
  facet normal 0.000000e+000 0.000000e+000 -1.000000e+000
    outer loop
      vertex   -1.270000e+002 0.000000e+000 0.000000e+000
      vertex   -1.238250e+002 3.175000e+000 0.000000e+000
      vertex   -8.466667e+001 0.000000e+000 0.000000e+000
    endloop
  endfacet
  facet normal 0.000000e+000 0.000000e+000 -1.000000e+000
    outer loop
      vertex   -1.270000e+002 0.000000e+000 0.000000e+000
      vertex   -1.270000e+002 5.080000e+001 0.000000e+000
      vertex   -1.238250e+002 3.175000e+000 0.000000e+000
    endloop
  endfacet
  facet normal -0.000000e+000 0.000000e+000 -1.000000e+000
    outer loop
      vertex   -4.233333e+001 2.032000e+002 0.000000e+000
      vertex   -8.360833e+001 2.000250e+002 0.000000e+000
      vertex   -8.466667e+001 2.032000e+002 0.000000e+000
    endloop
  endfacet
  facet normal -0.000000e+000 0.000000e+000 -1.000000e+000
    outer loop
      vertex   -4.233333e+001 2.032000e+002 0.000000e+000
      vertex   -4.339167e+001 2.000250e+002 0.000000e+000
      vertex   -8.360833e+001 2.000250e+002 0.000000e+000
    endloop
  endfacet
  facet normal -0.000000e+000 -0.000000e+000 -1.000000e+000
    outer loop
      vertex   -4.233333e+001 2.032000e+002 0.000000e+000
      vertex   -3.175000e+000 2.000250e+002 0.000000e+000
      vertex   -4.339167e+001 2.000250e+002 0.000000e+000
    endloop
  endfacet
  facet normal 0.000000e+000 -0.000000e+000 -1.000000e+000
    outer loop
      vertex   -4.233333e+001 2.032000e+002 0.000000e+000
      vertex   0.000000e+000 2.032000e+002 0.000000e+000
      vertex   -3.175000e+000 2.000250e+002 0.000000e+000
    endloop
  endfacet
  facet normal 0.000000e+000 0.000000e+000 -1.000000e+000
    outer loop
      vertex   -3.175000e+000 2.000250e+002 0.000000e+000
      vertex   0.000000e+000 2.032000e+002 0.000000e+000
      vertex   0.000000e+000 1.524000e+002 0.000000e+000
    endloop
  endfacet
  facet normal 0.000000e+000 0.000000e+000 -1.000000e+000
    outer loop
      vertex   -3.175000e+000 1.508125e+002 0.000000e+000
      vertex   0.000000e+000 1.524000e+002 0.000000e+000
      vertex   0.000000e+000 1.016000e+002 0.000000e+000
    endloop
  endfacet
  facet normal 0.000000e+000 -0.000000e+000 -1.000000e+000
    outer loop
      vertex   -3.175000e+000 1.016000e+002 0.000000e+000
      vertex   0.000000e+000 1.016000e+002 0.000000e+000
      vertex   -3.175000e+000 5.238750e+001 0.000000e+000
    endloop
  endfacet
  facet normal 0.000000e+000 0.000000e+000 -1.000000e+000
    outer loop
      vertex   -3.175000e+000 1.016000e+002 0.000000e+000
      vertex   -3.175000e+000 1.508125e+002 0.000000e+000
      vertex   0.000000e+000 1.016000e+002 0.000000e+000
    endloop
  endfacet
  facet normal 0.000000e+000 -0.000000e+000 -1.000000e+000
    outer loop
      vertex   -3.175000e+000 2.000250e+002 0.000000e+000
      vertex   0.000000e+000 1.524000e+002 0.000000e+000
      vertex   -3.175000e+000 1.508125e+002 0.000000e+000
    endloop
  endfacet
  facet normal -0.000000e+000 -0.000000e+000 -1.000000e+000
    outer loop
      vertex   0.000000e+000 1.016000e+002 0.000000e+000
      vertex   0.000000e+000 5.080000e+001 0.000000e+000
      vertex   -3.175000e+000 5.238750e+001 0.000000e+000
    endloop
  endfacet
  facet normal 0.000000e+000 -0.000000e+000 -1.000000e+000
    outer loop
      vertex   -3.175000e+000 5.238750e+001 0.000000e+000
      vertex   0.000000e+000 5.080000e+001 0.000000e+000
      vertex   -3.175000e+000 3.175000e+000 0.000000e+000
    endloop
  endfacet
  facet normal 0.000000e+000 0.000000e+000 -1.000000e+000
    outer loop
      vertex   -3.175000e+000 3.175000e+000 0.000000e+000
      vertex   0.000000e+000 5.080000e+001 0.000000e+000
      vertex   0.000000e+000 0.000000e+000 0.000000e+000
    endloop
  endfacet
  facet normal 0.000000e+000 0.000000e+000 -1.000000e+000
    outer loop
      vertex   -4.233333e+001 0.000000e+000 0.000000e+000
      vertex   -3.175000e+000 3.175000e+000 0.000000e+000
      vertex   0.000000e+000 0.000000e+000 0.000000e+000
    endloop
  endfacet
  facet normal 0.000000e+000 0.000000e+000 -1.000000e+000
    outer loop
      vertex   -4.233333e+001 0.000000e+000 0.000000e+000
      vertex   -4.339167e+001 3.175000e+000 0.000000e+000
      vertex   -3.175000e+000 3.175000e+000 0.000000e+000
    endloop
  endfacet
  facet normal 0.000000e+000 0.000000e+000 -1.000000e+000
    outer loop
      vertex   -4.233333e+001 0.000000e+000 0.000000e+000
      vertex   -8.466667e+001 0.000000e+000 0.000000e+000
      vertex   -4.339167e+001 3.175000e+000 0.000000e+000
    endloop
  endfacet
  facet normal -0.000000e+000 0.000000e+000 -1.000000e+000
    outer loop
      vertex   -4.339167e+001 3.175000e+000 0.000000e+000
      vertex   -8.466667e+001 0.000000e+000 0.000000e+000
      vertex   -8.360833e+001 3.175000e+000 0.000000e+000
    endloop
  endfacet
  facet normal -0.000000e+000 0.000000e+000 -1.000000e+000
    outer loop
      vertex   -8.360833e+001 3.175000e+000 0.000000e+000
      vertex   -8.466667e+001 0.000000e+000 0.000000e+000
      vertex   -1.238250e+002 3.175000e+000 0.000000e+000
    endloop
  endfacet
  facet normal 0.000000e+000 0.000000e+000 -1.000000e+000
    outer loop
      vertex   -1.270000e+002 5.080000e+001 0.000000e+000
      vertex   -1.270000e+002 1.016000e+002 0.000000e+000
      vertex   -1.238250e+002 5.238750e+001 0.000000e+000
    endloop
  endfacet
  facet normal 0.000000e+000 0.000000e+000 -1.000000e+000
    outer loop
      vertex   -8.360833e+001 2.000250e+002 0.000000e+000
      vertex   -1.238250e+002 2.000250e+002 0.000000e+000
      vertex   -8.466667e+001 2.032000e+002 0.000000e+000
    endloop
  endfacet
  facet normal -0.000000e+000 0.000000e+000 -1.000000e+000
    outer loop
      vertex   -8.466667e+001 2.032000e+002 0.000000e+000
      vertex   -1.238250e+002 2.000250e+002 0.000000e+000
      vertex   -1.270000e+002 2.032000e+002 0.000000e+000
    endloop
  endfacet
endsolid
